<?xml version="1.0" encoding="UTF-8" standalone="no"?>
<!DOCTYPE svg PUBLIC "-//W3C//DTD SVG 1.1//EN"
 "http://www.w3.org/Graphics/SVG/1.1/DTD/svg11.dtd">
<!-- Generated by graphviz version 2.40.1 (20161225.0304)
 -->
<!-- Title: models_diagram Pages: 1 -->
<svg width="581pt" height="225pt"
 viewBox="0.00 0.00 581.18 225.00" xmlns="http://www.w3.org/2000/svg" xmlns:xlink="http://www.w3.org/1999/xlink">
<g id="graph0" class="graph" transform="scale(1 1) rotate(0) translate(4 221)">
<title>models_diagram</title>
<polygon fill="transparent" stroke="transparent" points="-4,4 -4,-221 577.1753,-221 577.1753,4 -4,4"/>
<!-- _diagram_info -->
<g id="node1" class="node">
<title>_diagram_info</title>
<text text-anchor="start" x="8" y="-202.6" font-family="Times,serif" font-size="13.00" fill="#000000">Models diagram</text>
<text text-anchor="start" x="8" y="-189.6" font-family="Times,serif" font-size="13.00" fill="#000000">Date: Apr 18 2017 &#45; 22:23</text>
<text text-anchor="start" x="8" y="-176.6" font-family="Times,serif" font-size="13.00" fill="#000000">Migration version: 20170419031931</text>
<text text-anchor="start" x="8" y="-163.6" font-family="Times,serif" font-size="13.00" fill="#000000">Generated by RailRoady 1.5.2</text>
<text text-anchor="start" x="8" y="-150.6" font-family="Times,serif" font-size="13.00" fill="#000000">http://railroady.prestonlee.com</text>
</g>
<!-- ApplicationRecord -->
<g id="node2" class="node">
<title>ApplicationRecord</title>
<ellipse fill="none" stroke="#000000" cx="302.6877" cy="-180.5" rx="77.2916" ry="18"/>
<text text-anchor="middle" x="302.6877" y="-176.3" font-family="Times,serif" font-size="14.00" fill="#000000">ApplicationRecord</text>
</g>
<!-- Category -->
<g id="node3" class="node">
<title>Category</title>
<ellipse fill="none" stroke="#000000" cx="440.6877" cy="-180.5" rx="42.5456" ry="18"/>
<text text-anchor="middle" x="440.6877" y="-176.3" font-family="Times,serif" font-size="14.00" fill="#000000">Category</text>
</g>
<!-- User -->
<g id="node4" class="node">
<title>User</title>
<ellipse fill="none" stroke="#000000" cx="528.6877" cy="-180.5" rx="27" ry="18"/>
<text text-anchor="middle" x="528.6877" y="-176.3" font-family="Times,serif" font-size="14.00" fill="#000000">User</text>
</g>
<!-- Work -->
<g id="node5" class="node">
<title>Work</title>
<ellipse fill="none" stroke="#000000" cx="528.6877" cy="-90" rx="29.5766" ry="18"/>
<text text-anchor="middle" x="528.6877" y="-85.8" font-family="Times,serif" font-size="14.00" fill="#000000">Work</text>
</g>
<!-- User&#45;&gt;Work -->
<g id="edge1" class="edge">
<title>User&#45;&gt;Work</title>
<path fill="none" stroke="#1568de" d="M528.6877,-153.9687C528.6877,-142.8402 528.6877,-129.878 528.6877,-118.5429"/>
<ellipse fill="none" stroke="#1568de" cx="528.6878" cy="-158.186" rx="4" ry="4"/>
<polygon fill="#1568de" stroke="#1568de" points="528.6878,-118.2868 533.1877,-108.2867 528.6878,-113.2868 528.6877,-108.2868 528.6877,-108.2868 528.6877,-108.2868 528.6878,-113.2868 524.1877,-108.2868 528.6878,-118.2868 528.6878,-118.2868"/>
</g>
<!-- Inventory -->
<g id="node6" class="node">
<title>Inventory</title>
<ellipse fill="none" stroke="#000000" cx="528.6877" cy="-18" rx="44.475" ry="18"/>
<text text-anchor="middle" x="528.6877" y="-13.8" font-family="Times,serif" font-size="14.00" fill="#000000">Inventory</text>
</g>
<!-- Work&#45;&gt;Inventory -->
<g id="edge2" class="edge">
<title>Work&#45;&gt;Inventory</title>
<path fill="none" stroke="#b0dad0" d="M528.6877,-63.8144C528.6877,-57.5677 528.6877,-50.894 528.6877,-44.6276"/>
<ellipse fill="none" stroke="#b0dad0" cx="528.6878" cy="-67.8314" rx="4" ry="4"/>
<ellipse fill="#b0dad0" stroke="#b0dad0" cx="528.6878" cy="-40.4133" rx="4" ry="4"/>
</g>
</g>
</svg>
