<?xml version="1.0" encoding="UTF-8" standalone="no"?>
<!DOCTYPE svg PUBLIC "-//W3C//DTD SVG 1.1//EN"
 "http://www.w3.org/Graphics/SVG/1.1/DTD/svg11.dtd">
<!-- Generated by graphviz version 2.40.1 (20161225.0304)
 -->
<!-- Title: models_diagram Pages: 1 -->
<svg width="920pt" height="332pt"
 viewBox="0.00 0.00 919.55 332.00" xmlns="http://www.w3.org/2000/svg" xmlns:xlink="http://www.w3.org/1999/xlink">
<g id="graph0" class="graph" transform="scale(1 1) rotate(0) translate(4 328)">
<title>models_diagram</title>
<polygon fill="transparent" stroke="transparent" points="-4,4 -4,-328 915.55,-328 915.55,4 -4,4"/>
<!-- _diagram_info -->
<g id="node1" class="node">
<title>_diagram_info</title>
<text text-anchor="start" x="8" y="-295.6" font-family="Times,serif" font-size="13.00" fill="#000000">Models diagram</text>
<text text-anchor="start" x="8" y="-282.6" font-family="Times,serif" font-size="13.00" fill="#000000">Date: Apr 18 2017 &#45; 22:23</text>
<text text-anchor="start" x="8" y="-269.6" font-family="Times,serif" font-size="13.00" fill="#000000">Migration version: 20170419031931</text>
<text text-anchor="start" x="8" y="-256.6" font-family="Times,serif" font-size="13.00" fill="#000000">Generated by RailRoady 1.5.2</text>
<text text-anchor="start" x="8" y="-243.6" font-family="Times,serif" font-size="13.00" fill="#000000">http://railroady.prestonlee.com</text>
</g>
<!-- ApplicationRecord -->
<g id="node2" class="node">
<title>ApplicationRecord</title>
<ellipse fill="none" stroke="#000000" cx="302.6877" cy="-273.5" rx="77.2916" ry="18"/>
<text text-anchor="middle" x="302.6877" y="-269.3" font-family="Times,serif" font-size="14.00" fill="#000000">ApplicationRecord</text>
</g>
<!-- Category -->
<g id="node3" class="node">
<title>Category</title>
<path fill="none" stroke="#000000" d="M409.8254,-230.5C409.8254,-230.5 633.55,-230.5 633.55,-230.5 639.55,-230.5 645.55,-236.5 645.55,-242.5 645.55,-242.5 645.55,-304.5 645.55,-304.5 645.55,-310.5 639.55,-316.5 633.55,-316.5 633.55,-316.5 409.8254,-316.5 409.8254,-316.5 403.8254,-316.5 397.8254,-310.5 397.8254,-304.5 397.8254,-304.5 397.8254,-242.5 397.8254,-242.5 397.8254,-236.5 403.8254,-230.5 409.8254,-230.5"/>
<text text-anchor="middle" x="521.6877" y="-301.3" font-family="Times,serif" font-size="14.00" fill="#000000">Category</text>
<polyline fill="none" stroke="#000000" points="397.8254,-294.5 645.55,-294.5 "/>
<text text-anchor="start" x="405.8254" y="-279.3" font-family="Times,serif" font-size="14.00" fill="#000000">id :integer</text>
<text text-anchor="start" x="405.8254" y="-265.3" font-family="Times,serif" font-size="14.00" fill="#000000">name :character varying</text>
<text text-anchor="start" x="405.8254" y="-251.3" font-family="Times,serif" font-size="14.00" fill="#000000">created_at :timestamp without time zone</text>
<text text-anchor="start" x="405.8254" y="-237.3" font-family="Times,serif" font-size="14.00" fill="#000000">updated_at :timestamp without time zone</text>
</g>
<!-- User -->
<g id="node4" class="node">
<title>User</title>
<path fill="none" stroke="#000000" d="M675.8254,-223.5C675.8254,-223.5 899.55,-223.5 899.55,-223.5 905.55,-223.5 911.55,-229.5 911.55,-235.5 911.55,-235.5 911.55,-311.5 911.55,-311.5 911.55,-317.5 905.55,-323.5 899.55,-323.5 899.55,-323.5 675.8254,-323.5 675.8254,-323.5 669.8254,-323.5 663.8254,-317.5 663.8254,-311.5 663.8254,-311.5 663.8254,-235.5 663.8254,-235.5 663.8254,-229.5 669.8254,-223.5 675.8254,-223.5"/>
<text text-anchor="middle" x="787.6877" y="-308.3" font-family="Times,serif" font-size="14.00" fill="#000000">User</text>
<polyline fill="none" stroke="#000000" points="663.8254,-301.5 911.55,-301.5 "/>
<text text-anchor="start" x="671.8254" y="-286.3" font-family="Times,serif" font-size="14.00" fill="#000000">id :integer</text>
<text text-anchor="start" x="671.8254" y="-272.3" font-family="Times,serif" font-size="14.00" fill="#000000">name :character varying</text>
<text text-anchor="start" x="671.8254" y="-258.3" font-family="Times,serif" font-size="14.00" fill="#000000">email :character varying</text>
<text text-anchor="start" x="671.8254" y="-244.3" font-family="Times,serif" font-size="14.00" fill="#000000">created_at :timestamp without time zone</text>
<text text-anchor="start" x="671.8254" y="-230.3" font-family="Times,serif" font-size="14.00" fill="#000000">updated_at :timestamp without time zone</text>
</g>
<!-- Work -->
<g id="node5" class="node">
<title>Work</title>
<path fill="none" stroke="#000000" d="M675.8254,-72.5C675.8254,-72.5 899.55,-72.5 899.55,-72.5 905.55,-72.5 911.55,-78.5 911.55,-84.5 911.55,-84.5 911.55,-174.5 911.55,-174.5 911.55,-180.5 905.55,-186.5 899.55,-186.5 899.55,-186.5 675.8254,-186.5 675.8254,-186.5 669.8254,-186.5 663.8254,-180.5 663.8254,-174.5 663.8254,-174.5 663.8254,-84.5 663.8254,-84.5 663.8254,-78.5 669.8254,-72.5 675.8254,-72.5"/>
<text text-anchor="middle" x="787.6877" y="-171.3" font-family="Times,serif" font-size="14.00" fill="#000000">Work</text>
<polyline fill="none" stroke="#000000" points="663.8254,-164.5 911.55,-164.5 "/>
<text text-anchor="start" x="671.8254" y="-149.3" font-family="Times,serif" font-size="14.00" fill="#000000">id :integer</text>
<text text-anchor="start" x="671.8254" y="-135.3" font-family="Times,serif" font-size="14.00" fill="#000000">description :text</text>
<text text-anchor="start" x="671.8254" y="-121.3" font-family="Times,serif" font-size="14.00" fill="#000000">created_at :timestamp without time zone</text>
<text text-anchor="start" x="671.8254" y="-107.3" font-family="Times,serif" font-size="14.00" fill="#000000">updated_at :timestamp without time zone</text>
<text text-anchor="start" x="671.8254" y="-93.3" font-family="Times,serif" font-size="14.00" fill="#000000">user_id :integer</text>
<text text-anchor="start" x="671.8254" y="-79.3" font-family="Times,serif" font-size="14.00" fill="#000000">inventory_id :integer</text>
</g>
<!-- User&#45;&gt;Work -->
<g id="edge1" class="edge">
<title>User&#45;&gt;Work</title>
<path fill="none" stroke="#a81cda" d="M787.6877,-215.085C787.6877,-209.1457 787.6877,-203.0785 787.6877,-197.0529"/>
<ellipse fill="none" stroke="#a81cda" cx="787.6878" cy="-219.1358" rx="4" ry="4"/>
<polygon fill="#a81cda" stroke="#a81cda" points="787.6878,-196.9817 792.1877,-186.9816 787.6878,-191.9817 787.6877,-186.9817 787.6877,-186.9817 787.6877,-186.9817 787.6878,-191.9817 783.1877,-186.9817 787.6878,-196.9817 787.6878,-196.9817"/>
</g>
<!-- Inventory -->
<g id="node6" class="node">
<title>Inventory</title>
<ellipse fill="none" stroke="#000000" cx="787.6877" cy="-18" rx="44.475" ry="18"/>
<text text-anchor="middle" x="787.6877" y="-13.8" font-family="Times,serif" font-size="14.00" fill="#000000">Inventory</text>
</g>
<!-- Work&#45;&gt;Inventory -->
<g id="edge2" class="edge">
<title>Work&#45;&gt;Inventory</title>
<path fill="none" stroke="#9fd7b1" d="M787.6877,-64.2102C787.6877,-57.3687 787.6877,-50.7247 787.6877,-44.707"/>
<ellipse fill="none" stroke="#9fd7b1" cx="787.6878" cy="-68.4435" rx="4" ry="4"/>
<ellipse fill="#9fd7b1" stroke="#9fd7b1" cx="787.6878" cy="-40.3885" rx="4" ry="4"/>
</g>
</g>
</svg>
